<?xml version="1.0" standalone="no"?>
<!DOCTYPE svg PUBLIC "-//W3C//DTD SVG 20010904//EN"
 "http://www.w3.org/TR/2001/REC-SVG-20010904/DTD/svg10.dtd">
<svg version="1.0" xmlns="http://www.w3.org/2000/svg"
 width="300.000000pt" height="300.000000pt" viewBox="0 0 300.000000 300.000000"
 preserveAspectRatio="xMidYMid meet">
<metadata>
Created by potrace 1.11, written by Peter Selinger 2001-2013
</metadata>
<g transform="translate(0.000000,300.000000) scale(0.100000,-0.100000)"
fill="#000000" stroke="none">
<path d="M2457 2553 l-406 -405 3 85 c2 47 0 108 -5 137 -12 77 -61 173 -119
234 -86 92 -270 170 -445 190 -39 5 -681 7 -1328 6 -43 0 -58 -3 -54 -12 3
-10 39 -13 133 -13 l129 0 3 -933 2 -932 -32 -1 c-18 0 -80 0 -137 1 -81 1
-102 -2 -99 -12 4 -10 72 -13 336 -13 183 0 332 -3 332 -8 0 -4 -171 -178
-380 -386 -366 -366 -379 -379 -360 -396 18 -16 45 10 776 739 417 416 760
756 764 756 8 0 7 -1524 -1 -1530 -4 -3 -66 -5 -138 -5 -99 0 -131 -3 -131
-12 0 -10 174 -13 850 -13 l850 0 0 424 c0 273 -4 427 -10 431 -5 3 -10 3 -11
-2 0 -4 -2 -39 -4 -78 -9 -164 -37 -284 -96 -403 -74 -152 -176 -247 -317
-298 -92 -34 -175 -46 -322 -48 l-65 -1 0 935 0 935 138 0 c106 -1 137 2 137
12 0 11 -50 13 -252 13 -139 0 -257 0 -263 0 -5 0 208 218 474 484 460 460
483 485 469 504 -14 20 -32 3 -421 -385z m-1263 198 c110 -48 194 -168 220
-314 15 -90 18 -299 5 -377 -22 -128 -109 -244 -223 -300 -70 -34 -89 -40
-166 -47 l-55 -5 0 528 c0 291 3 531 7 534 18 14 167 0 212 -19z m416 -1038
c0 -5 -628 -633 -634 -633 -5 0 -3 600 3 600 3 0 101 2 216 5 202 4 241 7 336
23 59 10 79 12 79 5z"/>
</g>
</svg>
